<svg width="150" height="37" viewBox="0 0 150 37" fill="none" xmlns="http://www.w3.org/2000/svg">
<path d="M14.4063 36.4517C13.937 36.4517 13.5423 36.2917 13.2223 35.9717C12.9237 35.673 12.7743 35.289 12.7743 34.8197V20.2277C12.7957 18.5423 13.1903 17.0277 13.9583 15.6837C14.7263 14.3397 15.7717 13.2837 17.0943 12.5157C18.417 11.7263 19.9103 11.3317 21.5743 11.3317C23.2597 11.3317 24.7637 11.7263 26.0863 12.5157C27.409 13.2837 28.4543 14.3397 29.2223 15.6837C30.0117 17.0277 30.4063 18.5423 30.4063 20.2277C30.4063 21.913 30.0437 23.4277 29.3183 24.7717C28.6143 26.0943 27.6437 27.1503 26.4063 27.9397C25.169 28.7077 23.7717 29.0917 22.2143 29.0917C20.9557 29.0917 19.793 28.8357 18.7263 28.3237C17.681 27.7903 16.785 27.0757 16.0383 26.1797V34.8197C16.0383 35.289 15.889 35.673 15.5903 35.9717C15.2917 36.2917 14.897 36.4517 14.4063 36.4517ZM21.5743 26.2117C22.6623 26.2117 23.633 25.9557 24.4863 25.4437C25.3397 24.9103 26.0117 24.1957 26.5023 23.2997C27.0143 22.3823 27.2703 21.3583 27.2703 20.2277C27.2703 19.0757 27.0143 18.0517 26.5023 17.1557C26.0117 16.2383 25.3397 15.5237 24.4863 15.0117C23.633 14.4783 22.6623 14.2117 21.5743 14.2117C20.5077 14.2117 19.537 14.4783 18.6623 15.0117C17.809 15.5237 17.137 16.2383 16.6463 17.1557C16.1557 18.0517 15.9103 19.0757 15.9103 20.2277C15.9103 21.3583 16.1557 22.3823 16.6463 23.2997C17.137 24.1957 17.809 24.9103 18.6623 25.4437C19.537 25.9557 20.5077 26.2117 21.5743 26.2117ZM40.3303 29.0917C38.773 29.0917 37.3757 28.7077 36.1383 27.9397C34.901 27.1503 33.9197 26.0943 33.1943 24.7717C32.4903 23.4277 32.1383 21.913 32.1383 20.2277C32.1383 18.5423 32.5223 17.0277 33.2903 15.6837C34.0797 14.3397 35.1357 13.2837 36.4583 12.5157C37.8023 11.7263 39.3063 11.3317 40.9703 11.3317C42.6343 11.3317 44.1277 11.7263 45.4503 12.5157C46.773 13.2837 47.8183 14.3397 48.5863 15.6837C49.3757 17.0277 49.7703 18.5423 49.7703 20.2277H48.5223C48.5223 21.913 48.1597 23.4277 47.4343 24.7717C46.7303 26.0943 45.7597 27.1503 44.5223 27.9397C43.285 28.7077 41.8877 29.0917 40.3303 29.0917ZM40.9703 26.2117C42.0583 26.2117 43.029 25.9557 43.8823 25.4437C44.7357 24.9103 45.4077 24.1957 45.8983 23.2997C46.389 22.3823 46.6343 21.3583 46.6343 20.2277C46.6343 19.0757 46.389 18.0517 45.8983 17.1557C45.4077 16.2383 44.7357 15.5237 43.8823 15.0117C43.029 14.4783 42.0583 14.2117 40.9703 14.2117C39.9037 14.2117 38.933 14.4783 38.0583 15.0117C37.205 15.5237 36.5223 16.2383 36.0103 17.1557C35.5197 18.0517 35.2743 19.0757 35.2743 20.2277C35.2743 21.3583 35.5197 22.3823 36.0103 23.2997C36.5223 24.1957 37.205 24.9103 38.0583 25.4437C38.933 25.9557 39.9037 26.2117 40.9703 26.2117ZM48.1383 28.9957C47.669 28.9957 47.2743 28.8463 46.9543 28.5477C46.6557 28.2277 46.5063 27.833 46.5063 27.3637V22.4677L47.1143 19.0757L49.7703 20.2277V27.3637C49.7703 27.833 49.6103 28.2277 49.2903 28.5477C48.9917 28.8463 48.6077 28.9957 48.1383 28.9957ZM67.1721 28.9957C66.7028 28.9957 66.3081 28.8463 65.9881 28.5477C65.6894 28.2277 65.5401 27.833 65.5401 27.3637V19.4917C65.5401 18.2757 65.3161 17.2837 64.8681 16.5157C64.4201 15.7477 63.8121 15.1823 63.0441 14.8197C62.2974 14.4357 61.4334 14.2437 60.4521 14.2437C59.5561 14.2437 58.7454 14.425 58.0201 14.7877C57.2948 15.1503 56.7188 15.641 56.2921 16.2597C55.8654 16.857 55.6521 17.5503 55.6521 18.3397H53.6361C53.6361 16.9957 53.9561 15.801 54.5961 14.7557C55.2574 13.689 56.1534 12.8463 57.2841 12.2277C58.4148 11.609 59.6841 11.2997 61.0921 11.2997C62.5641 11.2997 63.8761 11.6197 65.0281 12.2597C66.2014 12.8783 67.1188 13.7957 67.7801 15.0117C68.4628 16.2277 68.8041 17.721 68.8041 19.4917V27.3637C68.8041 27.833 68.6441 28.2277 68.3241 28.5477C68.0254 28.8463 67.6414 28.9957 67.1721 28.9957ZM54.0201 28.9957C53.5508 28.9957 53.1561 28.8463 52.8361 28.5477C52.5374 28.2277 52.3881 27.833 52.3881 27.3637V13.0917C52.3881 12.601 52.5374 12.2063 52.8361 11.9077C53.1561 11.609 53.5508 11.4597 54.0201 11.4597C54.5108 11.4597 54.9054 11.609 55.2041 11.9077C55.5028 12.2063 55.6521 12.601 55.6521 13.0917V27.3637C55.6521 27.833 55.5028 28.2277 55.2041 28.5477C54.9054 28.8463 54.5108 28.9957 54.0201 28.9957ZM79.8966 29.0917C78.2326 29.0917 76.7286 28.7077 75.3846 27.9397C74.0619 27.1503 73.0059 26.0837 72.2166 24.7397C71.4486 23.3957 71.0646 21.881 71.0646 20.1957C71.0646 18.5103 71.4166 17.0063 72.1206 15.6837C72.8459 14.3397 73.8273 13.2837 75.0646 12.5157C76.3019 11.7263 77.6993 11.3317 79.2566 11.3317C80.5153 11.3317 81.6779 11.5983 82.7446 12.1317C83.8113 12.6437 84.7073 13.3477 85.4326 14.2437V5.60365C85.4326 5.11299 85.5819 4.71832 85.8806 4.41965C86.2006 4.12099 86.5953 3.97165 87.0646 3.97165C87.5553 3.97165 87.9499 4.12099 88.2486 4.41965C88.5473 4.71832 88.6966 5.11299 88.6966 5.60365V20.1957C88.6966 21.881 88.3019 23.3957 87.5126 24.7397C86.7446 26.0837 85.6993 27.1503 84.3766 27.9397C83.0539 28.7077 81.5606 29.0917 79.8966 29.0917ZM79.8966 26.2117C80.9846 26.2117 81.9553 25.9557 82.8086 25.4437C83.6619 24.9103 84.3339 24.185 84.8246 23.2677C85.3153 22.3503 85.5606 21.3263 85.5606 20.1957C85.5606 19.0437 85.3153 18.0197 84.8246 17.1237C84.3339 16.2277 83.6619 15.5237 82.8086 15.0117C81.9553 14.4783 80.9846 14.2117 79.8966 14.2117C78.8299 14.2117 77.8593 14.4783 76.9846 15.0117C76.1313 15.5237 75.4486 16.2277 74.9366 17.1237C74.4459 18.0197 74.2006 19.0437 74.2006 20.1957C74.2006 21.3263 74.4459 22.3503 74.9366 23.2677C75.4486 24.185 76.1313 24.9103 76.9846 25.4437C77.8593 25.9557 78.8299 26.2117 79.8966 26.2117ZM99.5166 29.0917C97.9593 29.0917 96.5619 28.7077 95.3246 27.9397C94.0873 27.1503 93.1059 26.0943 92.3806 24.7717C91.6766 23.4277 91.3246 21.913 91.3246 20.2277C91.3246 18.5423 91.7086 17.0277 92.4766 15.6837C93.2659 14.3397 94.3219 13.2837 95.6446 12.5157C96.9886 11.7263 98.4926 11.3317 100.157 11.3317C101.821 11.3317 103.314 11.7263 104.637 12.5157C105.959 13.2837 107.005 14.3397 107.773 15.6837C108.562 17.0277 108.957 18.5423 108.957 20.2277H107.709C107.709 21.913 107.346 23.4277 106.621 24.7717C105.917 26.0943 104.946 27.1503 103.709 27.9397C102.471 28.7077 101.074 29.0917 99.5166 29.0917ZM100.157 26.2117C101.245 26.2117 102.215 25.9557 103.069 25.4437C103.922 24.9103 104.594 24.1957 105.085 23.2997C105.575 22.3823 105.821 21.3583 105.821 20.2277C105.821 19.0757 105.575 18.0517 105.085 17.1557C104.594 16.2383 103.922 15.5237 103.069 15.0117C102.215 14.4783 101.245 14.2117 100.157 14.2117C99.0899 14.2117 98.1193 14.4783 97.2446 15.0117C96.3913 15.5237 95.7086 16.2383 95.1966 17.1557C94.7059 18.0517 94.4606 19.0757 94.4606 20.2277C94.4606 21.3583 94.7059 22.3823 95.1966 23.2997C95.7086 24.1957 96.3913 24.9103 97.2446 25.4437C98.1193 25.9557 99.0899 26.2117 100.157 26.2117ZM107.325 28.9957C106.855 28.9957 106.461 28.8463 106.141 28.5477C105.842 28.2277 105.693 27.833 105.693 27.3637V22.4677L106.301 19.0757L108.957 20.2277V27.3637C108.957 27.833 108.797 28.2277 108.477 28.5477C108.178 28.8463 107.794 28.9957 107.325 28.9957ZM126.358 28.9957C125.889 28.9957 125.494 28.8463 125.174 28.5477C124.876 28.2277 124.726 27.833 124.726 27.3637V19.4917C124.726 18.2757 124.502 17.2837 124.054 16.5157C123.606 15.7477 122.998 15.1823 122.23 14.8197C121.484 14.4357 120.62 14.2437 119.638 14.2437C118.742 14.2437 117.932 14.425 117.206 14.7877C116.481 15.1503 115.905 15.641 115.478 16.2597C115.052 16.857 114.838 17.5503 114.838 18.3397H112.822C112.822 16.9957 113.142 15.801 113.782 14.7557C114.444 13.689 115.34 12.8463 116.47 12.2277C117.601 11.609 118.87 11.2997 120.278 11.2997C121.75 11.2997 123.062 11.6197 124.214 12.2597C125.388 12.8783 126.305 13.7957 126.966 15.0117C127.649 16.2277 127.99 17.721 127.99 19.4917V27.3637C127.99 27.833 127.83 28.2277 127.51 28.5477C127.212 28.8463 126.828 28.9957 126.358 28.9957ZM113.206 28.9957C112.737 28.9957 112.342 28.8463 112.022 28.5477C111.724 28.2277 111.574 27.833 111.574 27.3637V13.0917C111.574 12.601 111.724 12.2063 112.022 11.9077C112.342 11.609 112.737 11.4597 113.206 11.4597C113.697 11.4597 114.092 11.609 114.39 11.9077C114.689 12.2063 114.838 12.601 114.838 13.0917V27.3637C114.838 27.833 114.689 28.2277 114.39 28.5477C114.092 28.8463 113.697 28.9957 113.206 28.9957ZM138.443 29.0917C136.886 29.0917 135.488 28.7077 134.251 27.9397C133.014 27.1503 132.032 26.0943 131.307 24.7717C130.603 23.4277 130.251 21.913 130.251 20.2277C130.251 18.5423 130.635 17.0277 131.403 15.6837C132.192 14.3397 133.248 13.2837 134.571 12.5157C135.915 11.7263 137.419 11.3317 139.083 11.3317C140.747 11.3317 142.24 11.7263 143.563 12.5157C144.886 13.2837 145.931 14.3397 146.699 15.6837C147.488 17.0277 147.883 18.5423 147.883 20.2277H146.635C146.635 21.913 146.272 23.4277 145.547 24.7717C144.843 26.0943 143.872 27.1503 142.635 27.9397C141.398 28.7077 140 29.0917 138.443 29.0917ZM139.083 26.2117C140.171 26.2117 141.142 25.9557 141.995 25.4437C142.848 24.9103 143.52 24.1957 144.011 23.2997C144.502 22.3823 144.747 21.3583 144.747 20.2277C144.747 19.0757 144.502 18.0517 144.011 17.1557C143.52 16.2383 142.848 15.5237 141.995 15.0117C141.142 14.4783 140.171 14.2117 139.083 14.2117C138.016 14.2117 137.046 14.4783 136.171 15.0117C135.318 15.5237 134.635 16.2383 134.123 17.1557C133.632 18.0517 133.387 19.0757 133.387 20.2277C133.387 21.3583 133.632 22.3823 134.123 23.2997C134.635 24.1957 135.318 24.9103 136.171 25.4437C137.046 25.9557 138.016 26.2117 139.083 26.2117ZM146.251 28.9957C145.782 28.9957 145.387 28.8463 145.067 28.5477C144.768 28.2277 144.619 27.833 144.619 27.3637V22.4677L145.227 19.0757L147.883 20.2277V27.3637C147.883 27.833 147.723 28.2277 147.403 28.5477C147.104 28.8463 146.72 28.9957 146.251 28.9957Z" fill="black"/>
<path d="M23.3967 5.12583C12.4739 5.96365 6.81317 10.9637 6.81317 21.9182C6.81317 21.9182 -1.86823 8.29996 3.97379 2.96368C9.59828 -2.17391 23.3967 5.12583 23.3967 5.12583Z" fill="black"/>
</svg>
