<svg width="150" height="41" viewBox="0 0 150 41" fill="none" xmlns="http://www.w3.org/2000/svg">
<path d="M14.4063 40.4517C13.937 40.4517 13.5423 40.2917 13.2223 39.9717C12.9236 39.673 12.7743 39.289 12.7743 38.8197V24.2277C12.7956 22.5424 13.1903 21.0277 13.9583 19.6837C14.7263 18.3397 15.7716 17.2837 17.0943 16.5157C18.417 15.7264 19.9103 15.3317 21.5743 15.3317C23.2596 15.3317 24.7636 15.7264 26.0863 16.5157C27.409 17.2837 28.4543 18.3397 29.2223 19.6837C30.0116 21.0277 30.4063 22.5424 30.4063 24.2277C30.4063 25.913 30.0436 27.4277 29.3183 28.7717C28.6143 30.0944 27.6436 31.1504 26.4063 31.9397C25.169 32.7077 23.7716 33.0917 22.2143 33.0917C20.9556 33.0917 19.793 32.8357 18.7263 32.3237C17.681 31.7904 16.785 31.0757 16.0383 30.1797V38.8197C16.0383 39.289 15.889 39.673 15.5903 39.9717C15.2916 40.2917 14.897 40.4517 14.4063 40.4517ZM21.5743 30.2117C22.6623 30.2117 23.633 29.9557 24.4863 29.4437C25.3396 28.9104 26.0116 28.1957 26.5023 27.2997C27.0143 26.3824 27.2703 25.3584 27.2703 24.2277C27.2703 23.0757 27.0143 22.0517 26.5023 21.1557C26.0116 20.2383 25.3396 19.5237 24.4863 19.0117C23.633 18.4784 22.6623 18.2117 21.5743 18.2117C20.5076 18.2117 19.537 18.4784 18.6623 19.0117C17.809 19.5237 17.137 20.2383 16.6463 21.1557C16.1556 22.0517 15.9103 23.0757 15.9103 24.2277C15.9103 25.3584 16.1556 26.3824 16.6463 27.2997C17.137 28.1957 17.809 28.9104 18.6623 29.4437C19.537 29.9557 20.5076 30.2117 21.5743 30.2117ZM40.3303 33.0917C38.773 33.0917 37.3756 32.7077 36.1383 31.9397C34.901 31.1504 33.9196 30.0944 33.1943 28.7717C32.4903 27.4277 32.1383 25.913 32.1383 24.2277C32.1383 22.5424 32.5223 21.0277 33.2903 19.6837C34.0796 18.3397 35.1356 17.2837 36.4583 16.5157C37.8023 15.7264 39.3063 15.3317 40.9703 15.3317C42.6343 15.3317 44.1276 15.7264 45.4503 16.5157C46.773 17.2837 47.8183 18.3397 48.5863 19.6837C49.3756 21.0277 49.7703 22.5424 49.7703 24.2277H48.5223C48.5223 25.913 48.1596 27.4277 47.4343 28.7717C46.7303 30.0944 45.7596 31.1504 44.5223 31.9397C43.285 32.7077 41.8876 33.0917 40.3303 33.0917ZM40.9703 30.2117C42.0583 30.2117 43.029 29.9557 43.8823 29.4437C44.7356 28.9104 45.4076 28.1957 45.8983 27.2997C46.389 26.3824 46.6343 25.3584 46.6343 24.2277C46.6343 23.0757 46.389 22.0517 45.8983 21.1557C45.4076 20.2383 44.7356 19.5237 43.8823 19.0117C43.029 18.4784 42.0583 18.2117 40.9703 18.2117C39.9036 18.2117 38.933 18.4784 38.0583 19.0117C37.205 19.5237 36.5223 20.2383 36.0103 21.1557C35.5196 22.0517 35.2743 23.0757 35.2743 24.2277C35.2743 25.3584 35.5196 26.3824 36.0103 27.2997C36.5223 28.1957 37.205 28.9104 38.0583 29.4437C38.933 29.9557 39.9036 30.2117 40.9703 30.2117ZM48.1383 32.9957C47.669 32.9957 47.2743 32.8464 46.9543 32.5477C46.6556 32.2277 46.5063 31.833 46.5063 31.3637V26.4677L47.1143 23.0757L49.7703 24.2277V31.3637C49.7703 31.833 49.6103 32.2277 49.2903 32.5477C48.9916 32.8464 48.6076 32.9957 48.1383 32.9957ZM67.172 32.9957C66.7027 32.9957 66.308 32.8464 65.988 32.5477C65.6894 32.2277 65.54 31.833 65.54 31.3637V23.4917C65.54 22.2757 65.316 21.2837 64.868 20.5157C64.42 19.7477 63.812 19.1824 63.044 18.8197C62.2974 18.4357 61.4334 18.2437 60.452 18.2437C59.556 18.2437 58.7454 18.425 58.02 18.7877C57.2947 19.1503 56.7187 19.641 56.292 20.2597C55.8654 20.857 55.652 21.5504 55.652 22.3397H53.636C53.636 20.9957 53.956 19.801 54.596 18.7557C55.2574 17.689 56.1534 16.8464 57.284 16.2277C58.4147 15.609 59.684 15.2997 61.092 15.2997C62.564 15.2997 63.876 15.6197 65.028 16.2597C66.2014 16.8783 67.1187 17.7957 67.78 19.0117C68.4627 20.2277 68.804 21.721 68.804 23.4917V31.3637C68.804 31.833 68.644 32.2277 68.324 32.5477C68.0254 32.8464 67.6414 32.9957 67.172 32.9957ZM54.02 32.9957C53.5507 32.9957 53.156 32.8464 52.836 32.5477C52.5374 32.2277 52.388 31.833 52.388 31.3637V17.0917C52.388 16.601 52.5374 16.2063 52.836 15.9077C53.156 15.609 53.5507 15.4597 54.02 15.4597C54.5107 15.4597 54.9054 15.609 55.204 15.9077C55.5027 16.2063 55.652 16.601 55.652 17.0917V31.3637C55.652 31.833 55.5027 32.2277 55.204 32.5477C54.9054 32.8464 54.5107 32.9957 54.02 32.9957ZM79.8965 33.0917C78.2325 33.0917 76.7285 32.7077 75.3845 31.9397C74.0619 31.1504 73.0059 30.0837 72.2165 28.7397C71.4485 27.3957 71.0645 25.881 71.0645 24.1957C71.0645 22.5104 71.4165 21.0064 72.1205 19.6837C72.8459 18.3397 73.8272 17.2837 75.0645 16.5157C76.3019 15.7264 77.6992 15.3317 79.2565 15.3317C80.5152 15.3317 81.6779 15.5984 82.7445 16.1317C83.8112 16.6437 84.7072 17.3477 85.4325 18.2437V9.60368C85.4325 9.11302 85.5819 8.71835 85.8805 8.41968C86.2005 8.12102 86.5952 7.97168 87.0645 7.97168C87.5552 7.97168 87.9499 8.12102 88.2485 8.41968C88.5472 8.71835 88.6965 9.11302 88.6965 9.60368V24.1957C88.6965 25.881 88.3019 27.3957 87.5125 28.7397C86.7445 30.0837 85.6992 31.1504 84.3765 31.9397C83.0539 32.7077 81.5605 33.0917 79.8965 33.0917ZM79.8965 30.2117C80.9845 30.2117 81.9552 29.9557 82.8085 29.4437C83.6619 28.9104 84.3339 28.185 84.8245 27.2677C85.3152 26.3504 85.5605 25.3264 85.5605 24.1957C85.5605 23.0437 85.3152 22.0197 84.8245 21.1237C84.3339 20.2277 83.6619 19.5237 82.8085 19.0117C81.9552 18.4784 80.9845 18.2117 79.8965 18.2117C78.8299 18.2117 77.8592 18.4784 76.9845 19.0117C76.1312 19.5237 75.4485 20.2277 74.9365 21.1237C74.4459 22.0197 74.2005 23.0437 74.2005 24.1957C74.2005 25.3264 74.4459 26.3504 74.9365 27.2677C75.4485 28.185 76.1312 28.9104 76.9845 29.4437C77.8592 29.9557 78.8299 30.2117 79.8965 30.2117ZM99.5165 33.0917C97.9592 33.0917 96.5619 32.7077 95.3245 31.9397C94.0872 31.1504 93.1059 30.0944 92.3805 28.7717C91.6765 27.4277 91.3245 25.913 91.3245 24.2277C91.3245 22.5424 91.7085 21.0277 92.4765 19.6837C93.2659 18.3397 94.3219 17.2837 95.6445 16.5157C96.9885 15.7264 98.4925 15.3317 100.157 15.3317C101.821 15.3317 103.314 15.7264 104.637 16.5157C105.959 17.2837 107.005 18.3397 107.773 19.6837C108.562 21.0277 108.957 22.5424 108.957 24.2277H107.709C107.709 25.913 107.346 27.4277 106.621 28.7717C105.917 30.0944 104.946 31.1504 103.709 31.9397C102.471 32.7077 101.074 33.0917 99.5165 33.0917ZM100.157 30.2117C101.245 30.2117 102.215 29.9557 103.069 29.4437C103.922 28.9104 104.594 28.1957 105.085 27.2997C105.575 26.3824 105.821 25.3584 105.821 24.2277C105.821 23.0757 105.575 22.0517 105.085 21.1557C104.594 20.2383 103.922 19.5237 103.069 19.0117C102.215 18.4784 101.245 18.2117 100.157 18.2117C99.0899 18.2117 98.1192 18.4784 97.2445 19.0117C96.3912 19.5237 95.7085 20.2383 95.1965 21.1557C94.7059 22.0517 94.4605 23.0757 94.4605 24.2277C94.4605 25.3584 94.7059 26.3824 95.1965 27.2997C95.7085 28.1957 96.3912 28.9104 97.2445 29.4437C98.1192 29.9557 99.0899 30.2117 100.157 30.2117ZM107.325 32.9957C106.855 32.9957 106.461 32.8464 106.141 32.5477C105.842 32.2277 105.693 31.833 105.693 31.3637V26.4677L106.301 23.0757L108.957 24.2277V31.3637C108.957 31.833 108.797 32.2277 108.477 32.5477C108.178 32.8464 107.794 32.9957 107.325 32.9957ZM126.358 32.9957C125.889 32.9957 125.494 32.8464 125.174 32.5477C124.876 32.2277 124.726 31.833 124.726 31.3637V23.4917C124.726 22.2757 124.502 21.2837 124.054 20.5157C123.606 19.7477 122.998 19.1824 122.23 18.8197C121.484 18.4357 120.62 18.2437 119.638 18.2437C118.742 18.2437 117.932 18.425 117.206 18.7877C116.481 19.1503 115.905 19.641 115.478 20.2597C115.052 20.857 114.838 21.5504 114.838 22.3397H112.822C112.822 20.9957 113.142 19.801 113.782 18.7557C114.444 17.689 115.34 16.8464 116.47 16.2277C117.601 15.609 118.87 15.2997 120.278 15.2997C121.75 15.2997 123.062 15.6197 124.214 16.2597C125.388 16.8783 126.305 17.7957 126.966 19.0117C127.649 20.2277 127.99 21.721 127.99 23.4917V31.3637C127.99 31.833 127.83 32.2277 127.51 32.5477C127.212 32.8464 126.828 32.9957 126.358 32.9957ZM113.206 32.9957C112.737 32.9957 112.342 32.8464 112.022 32.5477C111.724 32.2277 111.574 31.833 111.574 31.3637V17.0917C111.574 16.601 111.724 16.2063 112.022 15.9077C112.342 15.609 112.737 15.4597 113.206 15.4597C113.697 15.4597 114.092 15.609 114.39 15.9077C114.689 16.2063 114.838 16.601 114.838 17.0917V31.3637C114.838 31.833 114.689 32.2277 114.39 32.5477C114.092 32.8464 113.697 32.9957 113.206 32.9957ZM138.443 33.0917C136.885 33.0917 135.488 32.7077 134.251 31.9397C133.013 31.1504 132.032 30.0944 131.307 28.7717C130.603 27.4277 130.251 25.913 130.251 24.2277C130.251 22.5424 130.635 21.0277 131.403 19.6837C132.192 18.3397 133.248 17.2837 134.571 16.5157C135.915 15.7264 137.419 15.3317 139.083 15.3317C140.747 15.3317 142.24 15.7264 143.563 16.5157C144.885 17.2837 145.931 18.3397 146.699 19.6837C147.488 21.0277 147.883 22.5424 147.883 24.2277H146.635C146.635 25.913 146.272 27.4277 145.547 28.7717C144.843 30.0944 143.872 31.1504 142.635 31.9397C141.397 32.7077 140 33.0917 138.443 33.0917ZM139.083 30.2117C140.171 30.2117 141.141 29.9557 141.995 29.4437C142.848 28.9104 143.52 28.1957 144.011 27.2997C144.501 26.3824 144.747 25.3584 144.747 24.2277C144.747 23.0757 144.501 22.0517 144.011 21.1557C143.52 20.2383 142.848 19.5237 141.995 19.0117C141.141 18.4784 140.171 18.2117 139.083 18.2117C138.016 18.2117 137.045 18.4784 136.171 19.0117C135.317 19.5237 134.635 20.2383 134.123 21.1557C133.632 22.0517 133.387 23.0757 133.387 24.2277C133.387 25.3584 133.632 26.3824 134.123 27.2997C134.635 28.1957 135.317 28.9104 136.171 29.4437C137.045 29.9557 138.016 30.2117 139.083 30.2117ZM146.251 32.9957C145.781 32.9957 145.387 32.8464 145.067 32.5477C144.768 32.2277 144.619 31.833 144.619 31.3637V26.4677L145.227 23.0757L147.883 24.2277V31.3637C147.883 31.833 147.723 32.2277 147.403 32.5477C147.104 32.8464 146.72 32.9957 146.251 32.9957Z" fill="black"/>
<path d="M7.72796 22.0416C6.79937 21.1131 6.06278 20.0107 5.56023 18.7974C5.05768 17.5842 4.79903 16.2838 4.79903 14.9706C4.79903 13.6574 5.05768 12.357 5.56023 11.1437C6.06278 9.93049 6.79937 8.8281 7.72796 7.89951C8.65655 6.97093 9.75894 6.23433 10.9722 5.73179C12.1854 5.22924 13.4858 4.97058 14.799 4.97058C16.1122 4.97058 17.4126 5.22924 18.6259 5.73179C19.8391 6.23433 20.9415 6.97093 21.8701 7.89951L14.799 14.9706L7.72796 22.0416Z" fill="black"/>
</svg>
